<svg xmlns="http://www.w3.org/2000/svg" width="18.034" height="16.381" viewBox="0 0 18.034 16.381">
  <g id="Grupo_2" data-name="Grupo 2" transform="translate(-1.25 -2.25)">
    <path id="Caminho_7" data-name="Caminho 7" d="M16,14.614,18.48,8l2.48,6.614a4.134,4.134,0,0,1-4.96,0Z" transform="translate(-2.426 -0.866)" fill="none" stroke="#a1a1aa" stroke-linecap="round" stroke-linejoin="round" stroke-width="1.5"/>
    <path id="Caminho_8" data-name="Caminho 8" d="M2,14.614,4.48,8l2.48,6.614a4.134,4.134,0,0,1-4.96,0Z" transform="translate(0 -0.866)" fill="none" stroke="#a1a1aa" stroke-linecap="round" stroke-linejoin="round" stroke-width="1.5"/>
    <path id="Caminho_9" data-name="Caminho 9" d="M7,21h8.267" transform="translate(-0.866 -3.119)" fill="none" stroke="#a1a1aa" stroke-linecap="round" stroke-linejoin="round" stroke-width="1.5"/>
    <path id="Caminho_10" data-name="Caminho 10" d="M12,3V17.881" transform="translate(-1.733)" fill="none" stroke="#a1a1aa" stroke-linecap="round" stroke-linejoin="round" stroke-width="1.5"/>
    <path id="Caminho_11" data-name="Caminho 11" d="M3,6.653H4.653A15.327,15.327,0,0,0,10.44,5a15.327,15.327,0,0,0,5.787,1.653h1.653" transform="translate(-0.173 -0.347)" fill="none" stroke="#a1a1aa" stroke-linecap="round" stroke-linejoin="round" stroke-width="1.5"/>
  </g>
</svg>
